<svg xmlns="http://www.w3.org/2000/svg" width="18" height="18" viewBox="0 0 48 48" class="abcRioButtonSvg"><path fill="#EA4335" d="M24 9.5c3.54 0 6.71 1.22 9.21 3.6l6.85-6.85A23.09 23.09 0 0024 0 23.99 23.99 0 002.56 13.22l7.98 6.19A14.33 14.33 0 0124 9.5z"/><path fill="#4285F4" d="M46.98 24.55c0-1.57-.15-3.09-.38-4.55H24v9.02h12.94a11.16 11.16 0 01-4.78 7.18l7.73 6c4.51-4.18 7.09-10.36 7.09-17.65z"/><path fill="#FBBC05" d="M10.53 28.59a14.3 14.3 0 010-9.18l-7.98-6.19a23.91 23.91 0 00.01 21.56l7.97-6.19z"/><path fill="#34A853" d="M24 48c6.48 0 11.93-2.13 15.89-5.81l-7.73-6a14.44 14.44 0 01-8.16 2.3c-6.26 0-11.57-4.22-13.47-9.91l-7.98 6.19A24 24 0 0024 48z"/><path fill="none" d="M0 0h48v48H0z"/></svg>